<mxGraphModel dx="0" dy="0" grid="1" gridSize="10" guides="1" tooltips="1" connect="1" arrows="1" fold="1" page="0" pageScale="1" background="none" math="0" shadow="0">
  <root>
    <mxCell id="0" />
    <mxCell id="1" parent="0" />
    <mxCell id="node2" parent="1" vertex="1" value="CampaignJudge" style="label;fontStyle=0;strokeColor=default;fillColor=none;align=left;verticalAlign=middle;overflow=hidden;spacingLeft=28;spacingRight=4;rotatable=0;points=[[0,0.5],[1,0.5]];portConstraint=eastwest;imageWidth=16;imageHeight=16;image=data:image/png,iVBORw0KGgoAAAANSUhEUgAAACAAAAAgCAYAAABzenr0AAABgklEQVR4Xu2XMUrEQBSGF8HKykqwtbTRS9iIkzmClZ1n0At4Bb2AF7AQMZkFC7Gw2gNYWlhkmUmxxHmLq7P/y7gT50lA/OCHMPn/9xJ2k3kZjf7J4Mg0uyRc/3X02O0Uxl0XlW3n8se0hj5xDqu3TV25C9+0+Wz+pYbOkQdz2Zw8tuu6dKdFaV+Xmhr3NFe45j3kpQzW+RHKOOULT+BuX3Rpj8/bdo1Ex7QGngllsV4yelzvaWNvoWitKnt2cNNuoJ/W6Bx5wgzVoFroj6Ie6i0fvPSaBYVmhbFXyky30Y+Qh7ws72tSbfQzfPg5vAOvO3U/3UffKihD2aVavjb6GNBc9gK80MfAwIdyf4LsC1io958QhTkGBiJKeQw7hf0YGPhWXS+iFcJ+DAxIC/sxMCAt7MfAgLSwHwMD0sJ+DAxIC/sxMCAt7MfAgLSwH6NjM5JTymYU2Y5zlb4dL4gMJL3VeyBBIiNZivJGspDoUNol6aE0ZLCxHBnswwQZ7NPsT/EOpmFguNPEMNAAAAAASUVORK5CYII=">
      <mxGeometry x="363" y="232" width="118" height="26" as="geometry" />
    </mxCell>
    <mxCell id="node9" parent="1" vertex="1" value="CampaignManager" style="label;fontStyle=0;strokeColor=default;fillColor=none;align=left;verticalAlign=middle;overflow=hidden;spacingLeft=28;spacingRight=4;rotatable=0;points=[[0,0.5],[1,0.5]];portConstraint=eastwest;imageWidth=16;imageHeight=16;image=data:image/png,iVBORw0KGgoAAAANSUhEUgAAACAAAAAgCAYAAABzenr0AAABgklEQVR4Xu2XMUrEQBSGF8HKykqwtbTRS9iIkzmClZ1n0At4Bb2AF7AQMZkFC7Gw2gNYWlhkmUmxxHmLq7P/y7gT50lA/OCHMPn/9xJ2k3kZjf7J4Mg0uyRc/3X02O0Uxl0XlW3n8se0hj5xDqu3TV25C9+0+Wz+pYbOkQdz2Zw8tuu6dKdFaV+Xmhr3NFe45j3kpQzW+RHKOOULT+BuX3Rpj8/bdo1Ex7QGngllsV4yelzvaWNvoWitKnt2cNNuoJ/W6Bx5wgzVoFroj6Ie6i0fvPSaBYVmhbFXyky30Y+Qh7ws72tSbfQzfPg5vAOvO3U/3UffKihD2aVavjb6GNBc9gK80MfAwIdyf4LsC1io958QhTkGBiJKeQw7hf0YGPhWXS+iFcJ+DAxIC/sxMCAt7MfAgLSwHwMD0sJ+DAxIC/sxMCAt7MfAgLSwH6NjM5JTymYU2Y5zlb4dL4gMJL3VeyBBIiNZivJGspDoUNol6aE0ZLCxHBnswwQZ7NPsT/EOpmFguNPEMNAAAAAASUVORK5CYII=">
      <mxGeometry x="635" y="232" width="134" height="26" as="geometry" />
    </mxCell>
    <mxCell id="node7" parent="1" vertex="1" value="Class" style="label;fontStyle=0;strokeColor=default;fillColor=none;align=left;verticalAlign=middle;overflow=hidden;spacingLeft=28;spacingRight=4;rotatable=0;points=[[0,0.5],[1,0.5]];portConstraint=eastwest;imageWidth=16;imageHeight=16;image=data:image/png,iVBORw0KGgoAAAANSUhEUgAAACAAAAAgCAYAAABzenr0AAABgklEQVR4Xu2XMUrEQBSGF8HKykqwtbTRS9iIkzmClZ1n0At4Bb2AF7AQMZkFC7Gw2gNYWlhkmUmxxHmLq7P/y7gT50lA/OCHMPn/9xJ2k3kZjf7J4Mg0uyRc/3X02O0Uxl0XlW3n8se0hj5xDqu3TV25C9+0+Wz+pYbOkQdz2Zw8tuu6dKdFaV+Xmhr3NFe45j3kpQzW+RHKOOULT+BuX3Rpj8/bdo1Ex7QGngllsV4yelzvaWNvoWitKnt2cNNuoJ/W6Bx5wgzVoFroj6Ie6i0fvPSaBYVmhbFXyky30Y+Qh7ws72tSbfQzfPg5vAOvO3U/3UffKihD2aVavjb6GNBc9gK80MfAwIdyf4LsC1io958QhTkGBiJKeQw7hf0YGPhWXS+iFcJ+DAxIC/sxMCAt7MfAgLSwHwMD0sJ+DAxIC/sxMCAt7MfAgLSwH6NjM5JTymYU2Y5zlb4dL4gMJL3VeyBBIiNZivJGspDoUNol6aE0ZLCxHBnswwQZ7NPsT/EOpmFguNPEMNAAAAAASUVORK5CYII=">
      <mxGeometry x="773" y="52" width="59" height="26" as="geometry" />
    </mxCell>
    <mxCell id="node3" parent="1" vertex="1" value="Discipline" style="label;fontStyle=0;strokeColor=default;fillColor=none;align=left;verticalAlign=middle;overflow=hidden;spacingLeft=28;spacingRight=4;rotatable=0;points=[[0,0.5],[1,0.5]];portConstraint=eastwest;imageWidth=16;imageHeight=16;image=data:image/png,iVBORw0KGgoAAAANSUhEUgAAACAAAAAgCAYAAABzenr0AAABgklEQVR4Xu2XMUrEQBSGF8HKykqwtbTRS9iIkzmClZ1n0At4Bb2AF7AQMZkFC7Gw2gNYWlhkmUmxxHmLq7P/y7gT50lA/OCHMPn/9xJ2k3kZjf7J4Mg0uyRc/3X02O0Uxl0XlW3n8se0hj5xDqu3TV25C9+0+Wz+pYbOkQdz2Zw8tuu6dKdFaV+Xmhr3NFe45j3kpQzW+RHKOOULT+BuX3Rpj8/bdo1Ex7QGngllsV4yelzvaWNvoWitKnt2cNNuoJ/W6Bx5wgzVoFroj6Ie6i0fvPSaBYVmhbFXyky30Y+Qh7ws72tSbfQzfPg5vAOvO3U/3UffKihD2aVavjb6GNBc9gK80MfAwIdyf4LsC1io958QhTkGBiJKeQw7hf0YGPhWXS+iFcJ+DAxIC/sxMCAt7MfAgLSwHwMD0sJ+DAxIC/sxMCAt7MfAgLSwH6NjM5JTymYU2Y5zlb4dL4gMJL3VeyBBIiNZivJGspDoUNol6aE0ZLCxHBnswwQZ7NPsT/EOpmFguNPEMNAAAAAASUVORK5CYII=">
      <mxGeometry x="241" y="292" width="82" height="26" as="geometry" />
    </mxCell>
    <mxCell id="node0" parent="1" vertex="1" value="Entity" style="label;fontStyle=0;strokeColor=default;fillColor=none;align=left;verticalAlign=middle;overflow=hidden;spacingLeft=28;spacingRight=4;rotatable=0;points=[[0,0.5],[1,0.5]];portConstraint=eastwest;imageWidth=16;imageHeight=16;image=data:image/png,iVBORw0KGgoAAAANSUhEUgAAACAAAAAgCAYAAABzenr0AAABgklEQVR4Xu2XMUrEQBSGF8HKykqwtbTRS9iIkzmClZ1n0At4Bb2AF7AQMZkFC7Gw2gNYWlhkmUmxxHmLq7P/y7gT50lA/OCHMPn/9xJ2k3kZjf7J4Mg0uyRc/3X02O0Uxl0XlW3n8se0hj5xDqu3TV25C9+0+Wz+pYbOkQdz2Zw8tuu6dKdFaV+Xmhr3NFe45j3kpQzW+RHKOOULT+BuX3Rpj8/bdo1Ex7QGngllsV4yelzvaWNvoWitKnt2cNNuoJ/W6Bx5wgzVoFroj6Ie6i0fvPSaBYVmhbFXyky30Y+Qh7ws72tSbfQzfPg5vAOvO3U/3UffKihD2aVavjb6GNBc9gK80MfAwIdyf4LsC1io958QhTkGBiJKeQw7hf0YGPhWXS+iFcJ+DAxIC/sxMCAt7MfAgLSwHwMD0sJ+DAxIC/sxMCAt7MfAgLSwH6NjM5JTymYU2Y5zlb4dL4gMJL3VeyBBIiNZivJGspDoUNol6aE0ZLCxHBnswwQZ7NPsT/EOpmFguNPEMNAAAAAASUVORK5CYII=">
      <mxGeometry x="892" y="292" width="60" height="26" as="geometry" />
    </mxCell>
    <mxCell id="node4" parent="1" vertex="1" value="Entry" style="label;fontStyle=0;strokeColor=default;fillColor=none;align=left;verticalAlign=middle;overflow=hidden;spacingLeft=28;spacingRight=4;rotatable=0;points=[[0,0.5],[1,0.5]];portConstraint=eastwest;imageWidth=16;imageHeight=16;image=data:image/png,iVBORw0KGgoAAAANSUhEUgAAACAAAAAgCAYAAABzenr0AAABgklEQVR4Xu2XMUrEQBSGF8HKykqwtbTRS9iIkzmClZ1n0At4Bb2AF7AQMZkFC7Gw2gNYWlhkmUmxxHmLq7P/y7gT50lA/OCHMPn/9xJ2k3kZjf7J4Mg0uyRc/3X02O0Uxl0XlW3n8se0hj5xDqu3TV25C9+0+Wz+pYbOkQdz2Zw8tuu6dKdFaV+Xmhr3NFe45j3kpQzW+RHKOOULT+BuX3Rpj8/bdo1Ex7QGngllsV4yelzvaWNvoWitKnt2cNNuoJ/W6Bx5wgzVoFroj6Ie6i0fvPSaBYVmhbFXyky30Y+Qh7ws72tSbfQzfPg5vAOvO3U/3UffKihD2aVavjb6GNBc9gK80MfAwIdyf4LsC1io958QhTkGBiJKeQw7hf0YGPhWXS+iFcJ+DAxIC/sxMCAt7MfAgLSwHwMD0sJ+DAxIC/sxMCAt7MfAgLSwH6NjM5JTymYU2Y5zlb4dL4gMJL3VeyBBIiNZivJGspDoUNol6aE0ZLCxHBnswwQZ7NPsT/EOpmFguNPEMNAAAAAASUVORK5CYII=">
      <mxGeometry x="114" y="52" width="57" height="26" as="geometry" />
    </mxCell>
    <mxCell id="node5" parent="1" vertex="1" value="Location" style="label;fontStyle=0;strokeColor=default;fillColor=none;align=left;verticalAlign=middle;overflow=hidden;spacingLeft=28;spacingRight=4;rotatable=0;points=[[0,0.5],[1,0.5]];portConstraint=eastwest;imageWidth=16;imageHeight=16;image=data:image/png,iVBORw0KGgoAAAANSUhEUgAAACAAAAAgCAYAAABzenr0AAABgklEQVR4Xu2XMUrEQBSGF8HKykqwtbTRS9iIkzmClZ1n0At4Bb2AF7AQMZkFC7Gw2gNYWlhkmUmxxHmLq7P/y7gT50lA/OCHMPn/9xJ2k3kZjf7J4Mg0uyRc/3X02O0Uxl0XlW3n8se0hj5xDqu3TV25C9+0+Wz+pYbOkQdz2Zw8tuu6dKdFaV+Xmhr3NFe45j3kpQzW+RHKOOULT+BuX3Rpj8/bdo1Ex7QGngllsV4yelzvaWNvoWitKnt2cNNuoJ/W6Bx5wgzVoFroj6Ie6i0fvPSaBYVmhbFXyky30Y+Qh7ws72tSbfQzfPg5vAOvO3U/3UffKihD2aVavjb6GNBc9gK80MfAwIdyf4LsC1io958QhTkGBiJKeQw7hf0YGPhWXS+iFcJ+DAxIC/sxMCAt7MfAgLSwHwMD0sJ+DAxIC/sxMCAt7MfAgLSwH6NjM5JTymYU2Y5zlb4dL4gMJL3VeyBBIiNZivJGspDoUNol6aE0ZLCxHBnswwQZ7NPsT/EOpmFguNPEMNAAAAAASUVORK5CYII=">
      <mxGeometry x="765" y="292" width="75" height="26" as="geometry" />
    </mxCell>
    <mxCell id="node6" parent="1" vertex="1" value="School" style="label;fontStyle=0;strokeColor=default;fillColor=none;align=left;verticalAlign=middle;overflow=hidden;spacingLeft=28;spacingRight=4;rotatable=0;points=[[0,0.5],[1,0.5]];portConstraint=eastwest;imageWidth=16;imageHeight=16;image=data:image/png,iVBORw0KGgoAAAANSUhEUgAAACAAAAAgCAYAAABzenr0AAABgklEQVR4Xu2XMUrEQBSGF8HKykqwtbTRS9iIkzmClZ1n0At4Bb2AF7AQMZkFC7Gw2gNYWlhkmUmxxHmLq7P/y7gT50lA/OCHMPn/9xJ2k3kZjf7J4Mg0uyRc/3X02O0Uxl0XlW3n8se0hj5xDqu3TV25C9+0+Wz+pYbOkQdz2Zw8tuu6dKdFaV+Xmhr3NFe45j3kpQzW+RHKOOULT+BuX3Rpj8/bdo1Ex7QGngllsV4yelzvaWNvoWitKnt2cNNuoJ/W6Bx5wgzVoFroj6Ie6i0fvPSaBYVmhbFXyky30Y+Qh7ws72tSbfQzfPg5vAOvO3U/3UffKihD2aVavjb6GNBc9gK80MfAwIdyf4LsC1io958QhTkGBiJKeQw7hf0YGPhWXS+iFcJ+DAxIC/sxMCAt7MfAgLSwHwMD0sJ+DAxIC/sxMCAt7MfAgLSwH6NjM5JTymYU2Y5zlb4dL4gMJL3VeyBBIiNZivJGspDoUNol6aE0ZLCxHBnswwQZ7NPsT/EOpmFguNPEMNAAAAAASUVORK5CYII=">
      <mxGeometry x="529" y="172" width="66" height="26" as="geometry" />
    </mxCell>
    <mxCell id="node8" parent="1" vertex="1" value="Student" style="label;fontStyle=0;strokeColor=default;fillColor=none;align=left;verticalAlign=middle;overflow=hidden;spacingLeft=28;spacingRight=4;rotatable=0;points=[[0,0.5],[1,0.5]];portConstraint=eastwest;imageWidth=16;imageHeight=16;image=data:image/png,iVBORw0KGgoAAAANSUhEUgAAACAAAAAgCAYAAABzenr0AAABgklEQVR4Xu2XMUrEQBSGF8HKykqwtbTRS9iIkzmClZ1n0At4Bb2AF7AQMZkFC7Gw2gNYWlhkmUmxxHmLq7P/y7gT50lA/OCHMPn/9xJ2k3kZjf7J4Mg0uyRc/3X02O0Uxl0XlW3n8se0hj5xDqu3TV25C9+0+Wz+pYbOkQdz2Zw8tuu6dKdFaV+Xmhr3NFe45j3kpQzW+RHKOOULT+BuX3Rpj8/bdo1Ex7QGngllsV4yelzvaWNvoWitKnt2cNNuoJ/W6Bx5wgzVoFroj6Ie6i0fvPSaBYVmhbFXyky30Y+Qh7ws72tSbfQzfPg5vAOvO3U/3UffKihD2aVavjb6GNBc9gK80MfAwIdyf4LsC1io958QhTkGBiJKeQw7hf0YGPhWXS+iFcJ+DAxIC/sxMCAt7MfAgLSwHwMD0sJ+DAxIC/sxMCAt7MfAgLSwH6NjM5JTymYU2Y5zlb4dL4gMJL3VeyBBIiNZivJGspDoUNol6aE0ZLCxHBnswwQZ7NPsT/EOpmFguNPEMNAAAAAASUVORK5CYII=">
      <mxGeometry x="247" y="52" width="71" height="26" as="geometry" />
    </mxCell>
    <mxCell id="node1" parent="1" vertex="1" value="Tutor" style="label;fontStyle=0;strokeColor=default;fillColor=none;align=left;verticalAlign=middle;overflow=hidden;spacingLeft=28;spacingRight=4;rotatable=0;points=[[0,0.5],[1,0.5]];portConstraint=eastwest;imageWidth=16;imageHeight=16;image=data:image/png,iVBORw0KGgoAAAANSUhEUgAAACAAAAAgCAYAAABzenr0AAABgklEQVR4Xu2XMUrEQBSGF8HKykqwtbTRS9iIkzmClZ1n0At4Bb2AF7AQMZkFC7Gw2gNYWlhkmUmxxHmLq7P/y7gT50lA/OCHMPn/9xJ2k3kZjf7J4Mg0uyRc/3X02O0Uxl0XlW3n8se0hj5xDqu3TV25C9+0+Wz+pYbOkQdz2Zw8tuu6dKdFaV+Xmhr3NFe45j3kpQzW+RHKOOULT+BuX3Rpj8/bdo1Ex7QGngllsV4yelzvaWNvoWitKnt2cNNuoJ/W6Bx5wgzVoFroj6Ie6i0fvPSaBYVmhbFXyky30Y+Qh7ws72tSbfQzfPg5vAOvO3U/3UffKihD2aVavjb6GNBc9gK80MfAwIdyf4LsC1io958QhTkGBiJKeQw7hf0YGPhWXS+iFcJ+DAxIC/sxMCAt7MfAgLSwHwMD0sJ+DAxIC/sxMCAt7MfAgLSwH6NjM5JTymYU2Y5zlb4dL4gMJL3VeyBBIiNZivJGspDoUNol6aE0ZLCxHBnswwQZ7NPsT/EOpmFguNPEMNAAAAAASUVORK5CYII=">
      <mxGeometry x="655" y="112" width="55" height="26" as="geometry" />
    </mxCell>
    <mxCell id="edge7" edge="1" value="" parent="1" source="node2" target="node3" style="html=1;rounded=1;edgeStyle=orthogonalEdgeStyle;dashed=0;startArrow=none;endArrow=block;endSize=12;strokeColor=#3574f0;exitX=0.000;exitY=0.500;exitDx=0;exitDy=0;entryX=0.595;entryY=0.002;entryDx=0;entryDy=0;">
      <mxGeometry width="50" height="50" relative="1" as="geometry">
        <Array as="points">
          <mxPoint x="290" y="244" />
        </Array>
      </mxGeometry>
    </mxCell>
    <mxCell id="edge15" edge="1" value="" parent="1" source="node2" target="node6" style="html=1;rounded=1;edgeStyle=orthogonalEdgeStyle;dashed=0;startArrow=none;endArrow=block;endSize=12;strokeColor=#3574f0;exitX=0.500;exitY=0.002;exitDx=0;exitDy=0;entryX=0.000;entryY=0.750;entryDx=0;entryDy=0;">
      <mxGeometry width="50" height="50" relative="1" as="geometry">
        <Array as="points">
          <mxPoint x="422" y="190" />
        </Array>
      </mxGeometry>
    </mxCell>
    <mxCell id="edge3" edge="1" value="" parent="1" source="node9" target="node6" style="html=1;rounded=1;edgeStyle=orthogonalEdgeStyle;dashed=0;startArrow=none;endArrow=block;endSize=12;strokeColor=#3574f0;exitX=0.000;exitY=0.500;exitDx=0;exitDy=0;entryX=0.576;entryY=1.002;entryDx=0;entryDy=0;">
      <mxGeometry width="50" height="50" relative="1" as="geometry">
        <Array as="points">
          <mxPoint x="567" y="244" />
        </Array>
      </mxGeometry>
    </mxCell>
    <mxCell id="edge4" edge="1" value="" parent="1" source="node7" target="node5" style="html=1;rounded=1;edgeStyle=orthogonalEdgeStyle;dashed=0;startArrow=none;endArrow=block;endSize=12;strokeColor=#3574f0;exitX=1.001;exitY=0.500;exitDx=0;exitDy=0;entryX=1.000;entryY=0.333;entryDx=0;entryDy=0;">
      <mxGeometry width="50" height="50" relative="1" as="geometry">
        <Array as="points">
          <mxPoint x="842" y="64" />
          <mxPoint x="842" y="300" />
        </Array>
      </mxGeometry>
    </mxCell>
    <mxCell id="edge25" edge="1" value="" parent="1" source="node7" target="node6" style="html=1;rounded=1;edgeStyle=orthogonalEdgeStyle;dashed=0;startArrow=none;endArrow=block;endSize=12;strokeColor=#3574f0;exitX=0.500;exitY=1.001;exitDx=0;exitDy=0;entryX=1.000;entryY=0.500;entryDx=0;entryDy=0;">
      <mxGeometry width="50" height="50" relative="1" as="geometry">
        <Array as="points">
          <mxPoint x="802" y="184" />
        </Array>
      </mxGeometry>
    </mxCell>
    <mxCell id="edge14" edge="1" value="" parent="1" source="node7" target="node8" style="html=1;rounded=1;edgeStyle=orthogonalEdgeStyle;dashed=0;startArrow=none;endArrow=block;endSize=12;strokeColor=#3574f0;exitX=0.000;exitY=0.250;exitDx=0;exitDy=0;entryX=1.000;entryY=0.250;entryDx=0;entryDy=0;">
      <mxGeometry width="50" height="50" relative="1" as="geometry">
        <Array as="points" />
      </mxGeometry>
    </mxCell>
    <mxCell id="edge19" edge="1" value="" parent="1" source="node7" target="node1" style="html=1;rounded=1;edgeStyle=orthogonalEdgeStyle;dashed=0;startArrow=none;endArrow=block;endSize=12;strokeColor=#3574f0;exitX=0.331;exitY=1.002;exitDx=0;exitDy=0;entryX=1.001;entryY=0.500;entryDx=0;entryDy=0;">
      <mxGeometry width="50" height="50" relative="1" as="geometry">
        <Array as="points">
          <mxPoint x="792" y="124" />
        </Array>
      </mxGeometry>
    </mxCell>
    <mxCell id="edge0" edge="1" value="" parent="1" source="node3" target="node2" style="html=1;rounded=1;edgeStyle=orthogonalEdgeStyle;dashed=0;startArrow=none;endArrow=block;endSize=12;strokeColor=#3574f0;exitX=1.001;exitY=0.333;exitDx=0;exitDy=0;entryX=0.500;entryY=1.002;entryDx=0;entryDy=0;">
      <mxGeometry width="50" height="50" relative="1" as="geometry">
        <Array as="points">
          <mxPoint x="422" y="300" />
        </Array>
      </mxGeometry>
    </mxCell>
    <mxCell id="edge18" edge="1" value="" parent="1" source="node3" target="node4" style="html=1;rounded=1;edgeStyle=orthogonalEdgeStyle;dashed=0;startArrow=none;endArrow=block;endSize=12;strokeColor=#3574f0;exitX=0.001;exitY=0.667;exitDx=0;exitDy=0;entryX=0.588;entryY=1.001;entryDx=0;entryDy=0;">
      <mxGeometry width="50" height="50" relative="1" as="geometry">
        <Array as="points">
          <mxPoint x="147" y="308" />
        </Array>
      </mxGeometry>
    </mxCell>
    <mxCell id="edge8" edge="1" value="" parent="1" source="node3" target="node5" style="html=1;rounded=1;edgeStyle=orthogonalEdgeStyle;dashed=0;startArrow=none;endArrow=block;endSize=12;strokeColor=#3574f0;exitX=1.000;exitY=0.667;exitDx=0;exitDy=0;entryX=0.000;entryY=0.667;entryDx=0;entryDy=0;">
      <mxGeometry width="50" height="50" relative="1" as="geometry">
        <Array as="points" />
      </mxGeometry>
    </mxCell>
    <mxCell id="edge22" edge="1" value="" parent="1" source="node3" target="node8" style="html=1;rounded=1;edgeStyle=orthogonalEdgeStyle;dashed=0;startArrow=none;endArrow=block;endSize=12;strokeColor=#3574f0;exitX=0.000;exitY=0.333;exitDx=0;exitDy=0;entryX=0.000;entryY=0.667;entryDx=0;entryDy=0;">
      <mxGeometry width="50" height="50" relative="1" as="geometry">
        <Array as="points">
          <mxPoint x="239" y="300" />
          <mxPoint x="239" y="68" />
        </Array>
      </mxGeometry>
    </mxCell>
    <mxCell id="edge16" edge="1" value="" parent="1" source="node4" target="node3" style="html=1;rounded=1;edgeStyle=orthogonalEdgeStyle;dashed=0;startArrow=none;endArrow=block;endSize=12;strokeColor=#3574f0;exitX=0.412;exitY=1.001;exitDx=0;exitDy=0;entryX=0.439;entryY=1.001;entryDx=0;entryDy=0;">
      <mxGeometry width="50" height="50" relative="1" as="geometry">
        <Array as="points">
          <mxPoint x="137" y="318" />
          <mxPoint x="277" y="318" />
        </Array>
      </mxGeometry>
    </mxCell>
    <mxCell id="edge9" edge="1" value="" parent="1" source="node4" target="node8" style="html=1;rounded=1;edgeStyle=orthogonalEdgeStyle;dashed=0;startArrow=none;endArrow=block;endSize=12;strokeColor=#3574f0;exitX=1.001;exitY=0.333;exitDx=0;exitDy=0;entryX=0.001;entryY=0.333;entryDx=0;entryDy=0;">
      <mxGeometry width="50" height="50" relative="1" as="geometry">
        <Array as="points" />
      </mxGeometry>
    </mxCell>
    <mxCell id="edge23" edge="1" value="" parent="1" source="node5" target="node7" style="html=1;rounded=1;edgeStyle=orthogonalEdgeStyle;dashed=0;startArrow=none;endArrow=block;endSize=12;strokeColor=#3574f0;exitX=0.633;exitY=0.001;exitDx=0;exitDy=0;entryX=0.669;entryY=1.001;entryDx=0;entryDy=0;">
      <mxGeometry width="50" height="50" relative="1" as="geometry">
        <Array as="points" />
      </mxGeometry>
    </mxCell>
    <mxCell id="edge20" edge="1" value="" parent="1" source="node5" target="node3" style="html=1;rounded=1;edgeStyle=orthogonalEdgeStyle;dashed=0;startArrow=none;endArrow=block;endSize=12;strokeColor=#3574f0;exitX=0.500;exitY=1.001;exitDx=0;exitDy=0;entryX=0.561;entryY=1.001;entryDx=0;entryDy=0;">
      <mxGeometry width="50" height="50" relative="1" as="geometry">
        <Array as="points">
          <mxPoint x="802" y="318" />
          <mxPoint x="287" y="318" />
        </Array>
      </mxGeometry>
    </mxCell>
    <mxCell id="edge6" edge="1" value="" parent="1" source="node5" target="node0" style="html=1;rounded=1;edgeStyle=orthogonalEdgeStyle;dashed=0;startArrow=none;endArrow=block;endSize=12;strokeColor=#3574f0;exitX=1.000;exitY=0.667;exitDx=0;exitDy=0;entryX=0.000;entryY=0.667;entryDx=0;entryDy=0;">
      <mxGeometry width="50" height="50" relative="1" as="geometry">
        <Array as="points" />
      </mxGeometry>
    </mxCell>
    <mxCell id="edge10" edge="1" value="" parent="1" source="node6" target="node2" style="html=1;rounded=1;edgeStyle=orthogonalEdgeStyle;dashed=0;startArrow=none;endArrow=block;endSize=12;strokeColor=#3574f0;exitX=0.424;exitY=1.002;exitDx=0;exitDy=0;entryX=1.000;entryY=0.500;entryDx=0;entryDy=0;">
      <mxGeometry width="50" height="50" relative="1" as="geometry">
        <Array as="points">
          <mxPoint x="557" y="244" />
        </Array>
      </mxGeometry>
    </mxCell>
    <mxCell id="edge21" edge="1" value="" parent="1" source="node6" target="node9" style="html=1;rounded=1;edgeStyle=orthogonalEdgeStyle;dashed=0;startArrow=none;endArrow=block;endSize=12;strokeColor=#3574f0;exitX=1.000;exitY=0.750;exitDx=0;exitDy=0;entryX=0.500;entryY=0.002;entryDx=0;entryDy=0;">
      <mxGeometry width="50" height="50" relative="1" as="geometry">
        <Array as="points">
          <mxPoint x="702" y="190" />
        </Array>
      </mxGeometry>
    </mxCell>
    <mxCell id="edge2" edge="1" value="" parent="1" source="node6" target="node7" style="html=1;rounded=1;edgeStyle=orthogonalEdgeStyle;dashed=0;startArrow=none;endArrow=block;endSize=12;strokeColor=#3574f0;exitX=0.424;exitY=0.001;exitDx=0;exitDy=0;entryX=0.000;entryY=0.500;entryDx=0;entryDy=0;">
      <mxGeometry width="50" height="50" relative="1" as="geometry">
        <Array as="points">
          <mxPoint x="557" y="64" />
        </Array>
      </mxGeometry>
    </mxCell>
    <mxCell id="edge5" edge="1" value="" parent="1" source="node6" target="node8" style="html=1;rounded=1;edgeStyle=orthogonalEdgeStyle;dashed=0;startArrow=none;endArrow=block;endSize=12;strokeColor=#3574f0;exitX=0.000;exitY=0.500;exitDx=0;exitDy=0;entryX=0.570;entryY=1.001;entryDx=0;entryDy=0;">
      <mxGeometry width="50" height="50" relative="1" as="geometry">
        <Array as="points">
          <mxPoint x="287" y="184" />
        </Array>
      </mxGeometry>
    </mxCell>
    <mxCell id="edge12" edge="1" value="" parent="1" source="node6" target="node1" style="html=1;rounded=1;edgeStyle=orthogonalEdgeStyle;dashed=0;startArrow=none;endArrow=block;endSize=12;strokeColor=#3574f0;exitX=0.576;exitY=0.002;exitDx=0;exitDy=0;entryX=0.001;entryY=0.500;entryDx=0;entryDy=0;">
      <mxGeometry width="50" height="50" relative="1" as="geometry">
        <Array as="points">
          <mxPoint x="567" y="124" />
        </Array>
      </mxGeometry>
    </mxCell>
    <mxCell id="edge11" edge="1" value="" parent="1" source="node8" target="node7" style="html=1;rounded=1;edgeStyle=orthogonalEdgeStyle;dashed=0;startArrow=none;endArrow=block;endSize=12;strokeColor=#3574f0;exitX=0.570;exitY=0.001;exitDx=0;exitDy=0;entryX=0.500;entryY=0.001;entryDx=0;entryDy=0;">
      <mxGeometry width="50" height="50" relative="1" as="geometry">
        <Array as="points">
          <mxPoint x="287" y="50" />
          <mxPoint x="802" y="50" />
        </Array>
      </mxGeometry>
    </mxCell>
    <mxCell id="edge17" edge="1" value="" parent="1" source="node8" target="node3" style="html=1;rounded=1;edgeStyle=orthogonalEdgeStyle;dashed=0;startArrow=none;endArrow=block;endSize=12;strokeColor=#3574f0;exitX=0.430;exitY=1.001;exitDx=0;exitDy=0;entryX=0.439;entryY=0.001;entryDx=0;entryDy=0;">
      <mxGeometry width="50" height="50" relative="1" as="geometry">
        <Array as="points" />
      </mxGeometry>
    </mxCell>
    <mxCell id="edge24" edge="1" value="" parent="1" source="node8" target="node4" style="html=1;rounded=1;edgeStyle=orthogonalEdgeStyle;dashed=0;startArrow=none;endArrow=block;endSize=12;strokeColor=#3574f0;exitX=0.430;exitY=0.001;exitDx=0;exitDy=0;entryX=0.500;entryY=0.001;entryDx=0;entryDy=0;">
      <mxGeometry width="50" height="50" relative="1" as="geometry">
        <Array as="points">
          <mxPoint x="277" y="50" />
          <mxPoint x="142" y="50" />
        </Array>
      </mxGeometry>
    </mxCell>
    <mxCell id="edge1" edge="1" value="" parent="1" source="node8" target="node6" style="html=1;rounded=1;edgeStyle=orthogonalEdgeStyle;dashed=0;startArrow=none;endArrow=block;endSize=12;strokeColor=#3574f0;exitX=1.001;exitY=0.625;exitDx=0;exitDy=0;entryX=0.001;entryY=0.250;entryDx=0;entryDy=0;">
      <mxGeometry width="50" height="50" relative="1" as="geometry">
        <Array as="points">
          <mxPoint x="479" y="67" />
          <mxPoint x="479" y="178" />
        </Array>
      </mxGeometry>
    </mxCell>
    <mxCell id="edge26" edge="1" value="" parent="1" source="node1" target="node7" style="html=1;rounded=1;edgeStyle=orthogonalEdgeStyle;dashed=0;startArrow=none;endArrow=block;endSize=12;strokeColor=#3574f0;exitX=0.500;exitY=0.002;exitDx=0;exitDy=0;entryX=0.001;entryY=0.750;entryDx=0;entryDy=0;">
      <mxGeometry width="50" height="50" relative="1" as="geometry">
        <Array as="points">
          <mxPoint x="682" y="70" />
        </Array>
      </mxGeometry>
    </mxCell>
    <mxCell id="edge13" edge="1" value="" parent="1" source="node1" target="node6" style="html=1;rounded=1;edgeStyle=orthogonalEdgeStyle;dashed=0;startArrow=none;endArrow=block;endSize=12;strokeColor=#3574f0;exitX=0.500;exitY=1.002;exitDx=0;exitDy=0;entryX=1.001;entryY=0.250;entryDx=0;entryDy=0;">
      <mxGeometry width="50" height="50" relative="1" as="geometry">
        <Array as="points">
          <mxPoint x="682" y="178" />
        </Array>
      </mxGeometry>
    </mxCell>
  </root>
</mxGraphModel>